# xmcd
#
# Track frame offsets:
#	150
#	13382
#	29372
#	45196
#	57342
#	72605
#	86221
#	99559
#	114518
#	129953
#	146902
#	159612
#	170555
#	182558
#	201583
#
# Disc length: 2868 seconds
#
# Revision: 0
# Processed by: cddbd v1.5.2PL0 Copyright (c) Steve Scherf et al.
# Submitted via: EasyCDDAExtractor 16.0.8.2
#
DISCID=dd0b320f
DTITLE=Συλλογικός δίσκος - Ιστορία ρεμπέτικου τραγουδιού 2
DYEAR=2011
DGENRE=Ρεμπέτικη
TTITLE0=Λίντα Μαίρη - Τα ματόκλαδά σου λάμπουν [Μάρκος Βαμβακάρης]
TTITLE1=Πάνου Πόλυ - Τρελλοκόριτσο [Γιώργος Μπιθικώτσης]
TTITLE2=Περπινιάδης Βαγγέλης - Το φτωχομπούζουκο [Μανώλης Χιώτης]
TTITLE3=Νικολαΐδης Απόστολος - Όταν καπνίζει ο λουλάς [Γιώργος Μητσάκης]
TTITLE4=Δούκισσα - Πριν το χάραμα μονάχος [Γ. Παπαϊωάννου-Χ. Βασιλειάδης]
TTITLE5=Κόκοτας Σταμάτης - Ο ψαράς [Γιώργος Μητσάκης]
TTITLE6=Ζαγοραίος Σπύρος - Παίζει το μπαγλαμαδάκι [Στράτος Παγιουμτζής]
TTITLE7=Μαργαρίτης Γιώργος - Συρματοπλέγματα βαριά [Μπάμπης Μπακάλης]
TTITLE8=Διαμάντη Λίτσα - Συ μού χάραξες πορεία [Απόστολος Καλδάρας]
TTITLE9=Νίνου Μαρίκα - Γεννήθηκα για να πονώ [Β. Τσιτσάνης-Κ. Βίρβος]
TTITLE10=Νικολαΐδης Απόστολος - Αν μ' αξιώσει ο Θεός [Μάρκος Βαμβακάρης]
TTITLE11=Παπαδάτος Νίκος - Κάφ' τονε Σταύρο, κάφ' τονε [Μάρκος Βαμβακάρης]
TTITLE12=Ζαγοραίος Σπύρος - Κάτω στα Λεμονάδικα [Βαγγέλης Παπάζογλου]
TTITLE13=Γενίτσαρης Μιχάλης - Ωραία Θεσσαλονικιά [Μιχάλης Γενίτσαρης]
TTITLE14=Εσκενάζυ Ρόζα - Όσο βαριά είναι τα σίδερα [Γιώργος Μητσάκης]
EXTD=
EXTT0=
EXTT1=
EXTT2=
EXTT3=
EXTT4=
EXTT5=
EXTT6=
EXTT7=
EXTT8=
EXTT9=
EXTT10=
EXTT11=
EXTT12=
EXTT13=
EXTT14=
PLAYORDER=
